<?xml version="1.0" encoding="UTF-8"?>
<svg width="323mm" height="323mm" version="1.1" viewBox="0 0 323 323" xml:space="preserve" xmlns="http://www.w3.org/2000/svg"><g transform="translate(56.501 34.599)"><path d="m80.119 286.84c-1.5496-1.5644-1.9049-2.3471-1.9049-4.1962v-1.4593l3.6275-3.8861c1.9951-2.1373 4.7038-4.9924 6.0193-6.3447s2.4326-2.6442 2.4824-2.8709c0.05418-0.24633-1.299-1.8124-3.3623-3.8914-1.8991-1.9135-3.7201-3.8363-4.0466-4.2729-0.32648-0.43657-1.2416-1.5036-2.0336-2.3713-0.79198-0.86765-1.6605-1.9392-1.9301-2.3812-1.3641-2.2369 0.34263-5.2437 3.2657-5.7534 1.9104-0.3331 3.7867-0.27045 4.819 0.16089 0.55411 0.23152 2.5842 2.2998 5.7079 5.8152 2.6664 3.0007 4.9329 5.4559 5.0368 5.4559s2.6846-2.5598 5.7348-5.6885l5.5459-5.6885h1.4626c1.3165 0 1.5787 0.10115 2.6244 1.0122 0.63895 0.55671 1.5301 1.2262 1.9803 1.4878 0.8689 0.50488 1.4304 1.6624 1.4304 2.9488 0 1.2871-1.4775 3.1533-6.5568 8.2816-2.6512 2.6768-4.8204 5.0412-4.8204 5.2542 0 0.45722 2.8128 3.9267 5.3085 6.5477 3.8774 4.0721 5.6294 6.1036 5.9729 6.9258 0.19819 0.47434 0.36035 1.5368 0.36035 2.361 0 1.4227-0.0601 1.5586-1.1875 2.686l-1.1875 1.1875-2.4712-0.10808c-2.3702-0.10367-2.5271-0.14912-3.8396-1.1126-0.75262-0.55247-1.369-1.0836-1.3698-1.1804-7.7e-4 -0.0967-0.8403-1.0689-1.8656-2.1603-1.0253-1.0914-2.8404-3.0468-4.0335-4.3452-2.9908-3.2549-3.0638-3.3277-3.341-3.3277-0.13513 0-0.40302 0.16767-0.59531 0.3726-0.1923 0.20494-1.6626 1.723-3.2674 3.3734-1.6048 1.6505-3.625 3.8226-4.4894 4.8269-0.8644 1.0044-2.1948 2.2247-2.9565 2.712-1.212 0.77529-1.6028 0.8859-3.13 0.8859-1.7308 0-1.7553-0.0103-2.99-1.2568zm74.463-1.5736c-0.10148-0.10147-0.17221-2.5125-0.15718-5.3578l0.0273-5.1733 24.918 0.0359c13.705 0.0197 26.317 0.066 28.027 0.10275l3.1089 0.0669v10.51h-27.869c-15.328 0-27.952-0.083-28.054-0.1845zm-157.28-11.946c-0.26549-0.16904-0.32426-1.4934-0.26458-5.9622l0.07671-5.7449 50.403-0.1076 1.47e-4 1.7198c8.1e-5 0.94588 0.02986 3.6248 0.06617 5.9531l0.06602 4.2333-25.003 0.0629c-13.752 0.0346-25.157-0.0349-25.344-0.15443zm157.23-6.7292c-0.0714-0.18619-0.0975-2.6567-0.0578-5.4901l0.0721-5.1516h55.827l0.143 10.98h-27.927c-22.441 0-27.953-0.0665-28.057-0.33852zm-194.96-66.535c0.01849-12.478 0.05152-23.908 0.0734-25.4l0.03977-2.712h16.669v33.867h25.135v-67.741l16.536 0.1398 0.06997 8.1359c0.03848 4.4748 0.13877 8.1359 0.22285 8.1359 0.33747 0 1.7568-1.2888 5.9249-5.3801 2.4011-2.3568 5.9483-5.803 7.8827-7.6581l3.517-3.373 51.307 0.0218v50.785h-68.792v33.867h-58.62zm98.538-28.113 12.039 1.6e-4 0.16892-16.933-29.009 8e-3 -8.4005 8.3299c-4.6203 4.5814-8.4005 8.3854-8.4005 8.4532 0 0.20494 4.713 0.27832 13.361 0.20803 4.5111-0.0367 13.619-0.0666 20.241-0.0665zm-27.781 42.334v-8.4667h102.66v-16.933h-32.279v-50.8h48.948l4e-3 41.738c2e-3 22.956 0.0754 42.006 0.16315 42.333l0.15954 0.59531h-119.65zm102.66-50.8v-8.4667h-15.346l-0.0301 2.3151c-0.0166 1.2733-0.0218 3.3867-0.0117 4.6964 0.0102 1.3097 0.0237 4.0779 0.0301 6.1516l0.0117 3.7703h15.346zm25.87 51.063c-0.0404-4.5119-0.0338-8.3219 0.0147-8.4667 0.0538-0.16067 1.8323-0.26317 4.5661-0.26317h4.4779l-0.0681-33.867-0.0681-33.867 8.4005 1e-5c4.6203 0 8.4154 0.0893 8.4335 0.19845 0.0293 0.17621 0.1752 20.454 0.21605 30.03l0.0155 3.638h9.1281c5.0205 0 9.1281-0.0709 9.1281-0.15759 0-0.0867-0.21699-0.47363-0.48219-0.8599-0.71742-1.0449-1.5152-3.0711-2.2039-5.5971-0.6002-2.2015-0.61321-2.5112-0.61716-14.684l-4e-3 -12.435 47.757-0.1351v16.936h-31.014l0.1695 3.3734c0.23592 4.6954 0.33746 5.2286 1.4234 7.4745 1.1118 2.2996 3.2136 4.5391 5.0628 5.3946 1.1686 0.54064 1.6249 0.5611 14.238 0.63847l13.031 0.0799v16.906h-65.617v33.867h-25.914zm38.221-0.19703 0.0699-8.4005 53.314-0.1348v16.936h-53.453zm-237.46-81.823 0.06851-28.311 70.507 0.1342 0.06987 8.403 0.06987 8.403-53.85-0.014-0.13564 39.697-16.798 3e-5zm143.63-4.034c-0.2096-0.32742-1.8684-5.0602-3.6862-10.517-1.8178-5.457-3.9863-11.589-4.8188-13.626-0.83248-2.0373-1.7389-4.2779-2.0142-4.9792-0.27536-0.70126-0.66768-1.5347-0.87182-1.8521-0.20414-0.31739-1.0952-2.2194-1.9801-4.2268-0.8849-2.0073-1.7687-3.9123-1.9639-4.2333-0.19524-0.32099-1.0451-1.8338-1.8886-3.3617-4.786-8.6696-8.1142-13.864-11.712-18.28-0.54441-0.66818-1.7257-2.1565-2.6252-3.3073-2.1668-2.7725-7.0097-7.5422-10.173-10.019-2.8347-2.2198-3.4002-3.0788-2.9359-4.4597 1.272-3.7828 3.7526-10.781 3.9656-11.187 0.1451-0.27688 1.0673-2.8251 2.0492-5.6628 0.98197-2.8377 2.544-7.1794 3.4713-9.6484 0.92723-2.4689 1.6859-4.5785 1.6859-4.688 0-0.10943 0.46374-1.3041 1.0305-2.6548 0.56679-1.3507 1.5277-4.0631 2.1354-6.0277 0.60768-1.9645 1.864-5.4769 2.7917-7.8052 2.8776-7.2216 2.9755-7.6588 3.0799-13.758l0.09059-5.2917-2.4073-0.15243c-2.1014-0.13306-2.5461-0.25073-3.5001-0.92604-1.7242-1.2206-1.9393-1.935-2.0977-6.9678-0.16546-5.2566 0.15654-6.8745 1.6247-8.1635 0.72952-0.64053 1.2121-0.81573 2.5805-0.93689 3.084-0.27307 60.371-4e-3 61.097 0.28697 1.1433 0.45842 2.3137 1.6147 2.6794 2.647 0.23739 0.67017 0.34839 2.4587 0.34839 5.6137 0 4.4553-0.0251 4.6752-0.66589 5.8208-0.94516 1.69-2.7698 2.6599-4.7581 2.5291-0.80036-0.05265-1.7378 0.01321-2.0831 0.14634l-0.62792 0.24206 0.18091 4.9574c0.0995 2.7266 0.29293 5.4619 0.42985 6.0785 0.30892 1.3913 1.5214 4.8988 3.774 10.917 1.8898 5.0493 3.7394 10.2 4.9671 13.831 0.43174 1.2771 1.3276 3.7774 1.9907 5.5562 0.66313 1.7788 1.6049 4.3653 2.0928 5.7477 0.48789 1.3824 1.7951 5.0139 2.9049 8.0698 1.1098 3.0559 2.2409 6.3302 2.5136 7.276 0.27264 0.94588 0.72804 2.3746 1.012 3.175 0.85168 2.4005 0.48177 3.36-1.937 5.0241-0.6572 0.45216-1.1949 0.93546-1.1949 1.074s-0.2185 0.25187-0.48554 0.25187c-0.76766 0-8.8938 8.386-10.64 10.98-0.48975 0.7276-1.3003 1.768-1.8013 2.312-0.80649 0.87576-1.3937 1.6886-2.2868 3.1658-0.14552 0.24067-1.0562 1.6069-2.0238 3.0362-2.3414 3.4585-3.7639 5.8101-5.253 8.684-0.67863 1.3097-1.8273 3.4528-2.5526 4.7625-1.3087 2.3631-2.7488 5.2744-3.9919 8.0698-0.35592 0.80036-0.81477 1.5504-1.0197 1.6668-0.2049 0.11637-0.37254 0.46426-0.37254 0.77309 0 0.50154-2.7504 7.6742-3.985 10.392-0.26438 0.58208-1.8909 5.3446-3.6144 10.583-2.8708 8.7258-3.186 9.5325-3.7566 9.6143-0.34255 0.0491-0.73464-0.0699-0.87132-0.26459-0.19415-0.27648-0.27785-0.28154-0.3827-0.0231-0.21687 0.53448-1.1049 0.37963-1.5173-0.26459zm4.4478-16.391c0.0977-0.61124 0.27566-1.2363 0.39537-1.3891 0.11972-0.15274 0.82285-2.0041 1.5625-4.1142 0.73968-2.11 1.8883-5.1461 2.5524-6.7469 1.523-3.6707 9.3146-19.253 9.989-19.977 0.27707-0.2974 0.64542-0.93866 0.81855-1.425 0.80033-2.2483 9.0633-14.022 13.038-18.578 1.7877-2.049 4.387-4.6142 7.7471-7.6453 1.4518-1.3097 2.6489-2.592 2.6602-2.8495 0.02-0.45751-2.1625-6.8236-3.6947-10.777-0.42302-1.0914-1.4768-4.0084-2.3417-6.4823-2.2638-6.4751-3.9976-11.342-5.6548-15.875-0.79807-2.1828-2.1106-5.9333-2.9167-8.3344-0.80614-2.4011-1.8718-5.3777-2.3682-6.6146-0.4964-1.2369-1.1317-2.9865-1.4118-3.8878-0.35999-1.1584-0.66441-1.6809-1.0384-1.7823-0.29104-0.078892-10.254-0.14506-22.14-0.14705-18.548-0.0031-21.665 0.050867-21.995 0.38076-0.2114 0.2114-0.71618 1.3127-1.1217 2.4474-0.40554 1.1347-1.2531 3.3998-1.8835 5.0337-0.63038 1.6339-1.1461 3.05-1.1461 3.1469 0 0.096897-0.95934 2.7272-2.1319 5.8452-1.1725 3.118-2.7034 7.4169-3.4019 9.5531-0.6985 2.1363-2.0055 5.8486-2.9043 8.2497-0.89889 2.4011-1.9554 5.2288-2.3478 6.2839-0.41141 1.1061-0.86761 1.9182-1.0775 1.9182-0.22756 0-0.30209 0.16143-0.19881 0.43059 0.09088 0.23682-0.61674 2.7379-1.5725 5.5579l-1.7377 5.1273 1.5346 1.4153c0.84405 0.77841 2.3085 2.0707 3.2544 2.8717 1.5149 1.2829 4.0832 3.9655 6.5316 6.8222 0.71341 0.8324 3.5928 4.6217 5.4071 7.1159 1.0371 1.4257 4.9557 7.4527 6.8991 10.611 1.8075 2.9376 5.8862 10.79 8.5893 16.536 1.4488 3.0799 3.2074 7.3777 4.3846 10.716 0.84793 2.4042 2.3542 6.4972 2.5802 7.0115 0.13561 0.30849 0.24009-12.233 0.25053-30.074l0.0179-30.604-1.2568-0.46785c-2.6087-0.97113-5.0483-3.0177-6.7666-5.6764-0.75682-1.1711-1.9771-5.0686-2.2803-7.2835-0.68201-4.9811 1.0949-10.991 4.2079-14.233 3.5679-3.7156 8.6373-4.6479 13.149-2.418 3.4459 1.703 5.3331 4.1125 6.7465 8.6135 0.54048 1.7212 0.61942 2.5021 0.61426 6.0761-6e-3 3.8247-0.0566 4.2437-0.75768 6.2177-1.2067 3.3976-2.8574 5.759-4.8364 6.9188-0.6308 0.36967-1.1469 0.77143-1.1469 0.89281s-0.6457 0.35473-1.4349 0.51856c-0.78918 0.16383-1.5502 0.44016-1.691 0.61407-0.15896 0.19621-0.30793 9.8543-0.39261 25.452-0.16716 30.793 0.0101 39.432 0.71818 35.004zm-0.64862-64.899c1.6794-0.59251 3.0441-1.8177 4.0646-3.6489 1.2514-2.2456 1.7659-4.1478 1.7641-6.5228-4e-3 -5.798-1.7477-9.6806-5.1544-11.48-1.3909-0.73466-4.3557-0.78329-5.64-0.0925-2.1881 1.177-4.2791 4.3932-4.8459 7.4534-0.642 3.4665 0.23793 8.6359 1.9219 11.291 1.7821 2.8094 4.9817 4.0261 7.8896 3.0002zm19.461-56.558c0.081-0.32742 0.11302-2.2622 0.0712-4.2995l-0.0761-3.7042-21.299-0.0054c-11.714-3e-3 -21.448 0.03954-21.63 0.09445-0.40835 0.12327-0.47019 6.7857-0.07269 7.8312l0.25804 0.67868h42.601zm8.0044-12.568c0.10309-0.25466 0.18865-2.1894 0.19013-4.2995l3e-3 -3.8365-29.448-0.03382c-24.125-0.02771-29.512 0.02954-29.799 0.31665-0.26928 0.26928-0.32282 1.1965-0.23114 4.0026 0.06563 2.0087 0.16612 3.8009 0.2233 3.9828 0.08235 0.26197 6.2129 0.33073 29.489 0.33073 27.738 0 29.396-0.02595 29.573-0.46302zm25.857 150.75c-0.10102-0.16344-0.24721-1.4506-0.32487-2.8602l-0.14122-2.5631 1.5562-0.0784c3.8699-0.19488 7.6372-1.1384 10.486-2.6263 0.98226-0.51303 1.7841-1.0073 1.7818-1.0984-2e-3 -0.0911-0.61549-0.46332-1.3627-0.82712-3.49-1.6992-5.0451-4.1866-5.0451-8.0698 0-6.172 4.7264-10.54 10.963-10.131 3.2325 0.21191 5.4297 1.69 6.9386 4.6675 1.3595 2.6828 1.4426 5.7192 0.24815 9.0676-0.78823 2.2096-0.78249 2.3426 0.1027 2.3799 0.44764 0.0189 0.54945 0.0773 0.26458 0.15169-0.3284 0.0858-0.46302 0.38707-0.46302 1.0361 0 0.50333-0.17374 1.331-0.38608 1.8392-0.21235 0.50821-0.32483 1.0837-0.24995 1.2788 0.10232 0.26664-0.3332 0.40101-1.7533 0.54094-1.7899 0.17637-2.0432 0.29008-4.8084 2.1588-5.2544 3.551-8.8344 4.7707-15.465 5.269-1.472 0.11061-2.2157 0.0677-2.341-0.13505zm18.839-15.147c0.90217-0.9905 1.1886-1.7773 1.2155-3.3388 0.0324-1.8774-0.58504-3.1168-1.8069-3.6274-3.221-1.3458-6.119 1.5308-4.8681 4.8323 0.87435 2.3076 4.139 3.5837 5.4594 2.1339zm-137.18-0.92605 0.06986-8.4005 16.469-0.1398 0.15133 0.75664c0.08323 0.41615 0.16096 4.2278 0.17274 8.4704l0.02141 7.7138h-16.954zm28.248 0.76068c0-4.2019 0.07441-8.0119 0.16536-8.4667l0.16536-0.82683h2.0768c2.0452 0 2.0831 0.0122 2.492 0.80293 0.62398 1.2066 6.2123 15.418 6.2126 15.8 2.51e-4 0.25409-1.2871 0.33073-5.5559 0.33073h-5.5562zm58.356 7.0445c0.1009-0.32742 1.1078-2.917 2.2376-5.7547 1.1298-2.8377 2.4294-6.2247 2.8881-7.5268 0.45869-1.3021 0.96266-2.5225 1.1199-2.712 0.22213-0.26765 1.9012-0.34456 7.5224-0.34456h7.2365l0.1466 16.934-21.335-2.6e-4zm68.539-6.0854c0.0151-3.6744 0.0449-7.485 0.0661-8.4679l0.0386-1.7872 53.049 0.1348 0.0699 8.4005 0.0699 8.4005-53.321-4e-5z" fill="#fff"/></g></svg>
